<?xml version="1.0" standalone="no"?>
<!DOCTYPE svg PUBLIC "-//W3C//DTD SVG 20010904//EN"
 "http://www.w3.org/TR/2001/REC-SVG-20010904/DTD/svg10.dtd">
<svg version="1.0" xmlns="http://www.w3.org/2000/svg"
 width="512.000000pt" height="512.000000pt" viewBox="0 0 512.000000 512.000000"
 preserveAspectRatio="xMidYMid meet">
<metadata>
Created by potrace 1.11, written by Peter Selinger 2001-2013
</metadata>
<g transform="translate(0.000000,512.000000) scale(0.100000,-0.100000)"
fill="#000000" stroke="none">
<path d="M0 2560 l0 -2560 2560 0 2560 0 0 2560 0 2560 -2560 0 -2560 0 0
-2560z m2800 2355 c328 -65 613 -341 714 -687 38 -130 50 -235 43 -377 -13
-280 -114 -511 -307 -701 -130 -129 -253 -199 -430 -247 -100 -27 -320 -25
-424 5 -399 114 -674 461 -715 900 -30 324 78 632 298 853 228 227 513 316
821 254z m-1175 -1597 c54 -113 148 -235 265 -342 192 -176 420 -272 676 -283
199 -9 364 26 542 116 187 94 392 293 480 468 12 23 25 44 30 47 13 8 183
-127 301 -240 467 -448 717 -1002 797 -1770 9 -87 14 -186 12 -220 -7 -118
-89 -204 -213 -224 -36 -6 -419 -10 -947 -10 l-888 0 0 616 0 616 28 -6 c15
-4 60 -23 100 -43 177 -88 308 -294 327 -513 3 -41 8 -94 11 -118 l5 -42 512
2 512 3 3 98 3 97 -54 0 -53 0 -18 78 c-64 274 -213 599 -390 849 -28 40 -54
73 -58 73 -9 0 -148 -100 -148 -107 0 -2 24 -38 54 -81 124 -177 243 -417 310
-624 24 -73 46 -145 50 -160 l6 -28 -280 0 -280 0 0 22 c0 36 -31 147 -61 219
-94 230 -299 411 -523 464 -81 19 -234 19 -315 -1 -36 -9 -104 -34 -151 -57
-70 -34 -101 -57 -180 -136 -103 -103 -156 -189 -198 -321 -16 -50 -42 -165
-42 -187 0 -2 -112 -3 -250 -3 -137 0 -250 3 -250 6 0 12 24 103 47 184 61
204 216 511 336 664 l30 38 -24 19 c-13 10 -48 36 -77 56 l-54 37 -19 -24
c-173 -219 -362 -624 -415 -887 l-18 -93 -63 0 -63 0 0 -100 0 -100 500 0
c275 0 500 1 500 3 0 1 5 59 10 129 15 207 71 338 193 456 62 59 151 111 220
128 l27 6 0 -616 0 -617 -922 3 c-916 3 -923 3 -969 24 -62 29 -115 86 -135
147 -14 41 -16 71 -10 160 21 350 104 733 221 1018 138 336 291 566 549 825
133 133 361 324 385 324 3 0 15 -19 26 -42z m2155 -2656 c0 -4 -18 -109 -40
-232 -22 -123 -40 -225 -40 -227 0 -2 -495 -3 -1099 -3 -1039 0 -1100 1 -1105
18 -6 20 -86 433 -86 444 0 5 533 8 1185 8 652 0 1185 -4 1185 -8z"/>
<path d="M2003 3434 c-12 -49 -20 -90 -18 -92 13 -13 304 -68 390 -74 l50 -3
0 95 0 95 -69 8 c-38 4 -113 16 -165 28 -53 11 -112 22 -131 26 l-35 5 -22
-88z"/>
<path d="M3119 3506 c-25 -7 -99 -21 -165 -31 -65 -9 -125 -19 -131 -21 -9 -2
-13 -31 -13 -98 l0 -94 43 5 c122 13 380 63 393 75 4 4 -17 111 -32 161 -6 20
-30 21 -95 3z"/>
</g>
</svg>
